<?xml version="1.0" encoding="UTF-8"?>
<!DOCTYPE svg PUBLIC "-//W3C//DTD SVG 1.1//EN" "http://www.w3.org/Graphics/SVG/1.1/DTD/svg11.dtd">
<!-- Creator: CorelDRAW X7 -->
<svg xmlns="http://www.w3.org/2000/svg" xml:space="preserve" width="1.94981in" height="0.330091in" version="1.1" style="shape-rendering:geometricPrecision; text-rendering:geometricPrecision; image-rendering:optimizeQuality; fill-rule:evenodd; clip-rule:evenodd"
viewBox="0 0 1393 236"
 xmlns:xlink="http://www.w3.org/1999/xlink">
 <defs>
  <style type="text/css">
   <![CDATA[
    .fil0 {fill:#004AAD}
   ]]>
  </style>
 </defs>
 <g id="Layer_x0020_1">
  <metadata id="CorelCorpID_0Corel-Layer"/>
  <g id="_1914831724288">
   <g>
    <g>
     <g>
      <path class="fil0" d="M287 99c1,0 1,1 2,1 0,0 0,1 0,1 0,1 -1,1 -1,1 0,0 -1,0 -1,0 -1,0 -1,0 -2,0 -8,0 -18,0 -31,2 -14,1 -24,2 -32,3 -6,1 -13,2 -19,3 0,0 0,0 0,0 -3,0 -5,1 -8,3 -7,5 -16,10 -24,14 -8,5 -17,9 -26,12 -14,7 -28,12 -43,17 -3,1 -5,2 -7,5 -6,13 -13,26 -20,39 -7,11 -13,22 -19,34 0,0 0,0 0,0 0,0 0,1 -1,1 0,1 -1,1 -2,1 0,0 -1,0 -1,0 -1,-1 -1,-1 -1,-2 0,-2 0,-3 1,-5 0,0 0,0 0,0 6,-11 12,-21 18,-32 5,-10 11,-21 16,-32 1,-1 1,-2 2,-3 0,0 0,-1 0,-1 0,0 -1,0 -1,-1 -1,1 -2,1 -3,1 0,0 0,0 -1,0 -10,3 -20,6 -31,8 -7,1 -14,2 -22,3 0,0 -1,0 -1,0 -1,0 -1,0 -2,0 -3,0 -6,0 -8,-1 -2,-1 -4,-2 -4,-4 0,-1 0,-3 1,-5 2,-2 4,-4 7,-5 6,-4 12,-7 18,-9 17,-6 34,-12 51,-17 1,0 2,0 3,-1 2,0 4,-1 6,-1 2,-1 3,-3 4,-5 4,-8 7,-17 11,-25 3,-8 6,-17 9,-25 0,0 0,-1 0,-1 1,-1 1,-3 2,-4 0,-1 1,-1 1,-1 1,0 1,0 2,0 0,0 0,0 1,0 1,0 1,1 2,2 0,2 -1,4 -2,7 0,0 0,0 0,0 -3,11 -7,22 -12,32 -1,3 -2,6 -4,9 0,1 0,2 -1,3 0,2 -1,3 -1,3 1,1 1,1 1,1 1,0 2,0 3,-1 0,0 0,0 0,0 4,-1 7,-2 10,-2 6,-2 12,-3 18,-5 15,-3 29,-6 44,-9 3,0 5,-1 7,-3 4,-3 8,-7 13,-11 4,-4 7,-9 10,-14 2,-5 4,-10 3,-15 0,-5 -2,-11 -7,-16 -3,-3 -6,-5 -10,-8 -8,-4 -17,-7 -28,-9 -11,-2 -23,-3 -36,-3 -13,0 -25,0 -38,2 -13,1 -25,3 -36,6 -11,2 -20,5 -28,8 -7,3 -14,6 -20,10 -2,2 -5,4 -7,5 -2,2 -4,4 -6,7 -1,1 -1,1 -3,1 0,0 0,0 0,0 0,0 -1,0 -1,0 0,0 0,0 -1,0 0,0 -1,0 -1,-1 0,0 0,0 0,0 0,-1 0,-1 0,-1 1,-2 1,-3 2,-4 1,-1 2,-2 3,-3 3,-2 6,-4 9,-6 3,-2 6,-4 9,-5 7,-4 17,-8 30,-11 12,-4 25,-6 40,-8 14,-2 29,-4 44,-4 14,0 28,1 41,3 13,2 24,6 33,11 4,2 8,5 11,8 5,6 7,11 8,16 0,5 0,9 -2,14 -2,5 -5,9 -9,13 -3,5 -7,9 -10,12 -1,1 -1,1 -2,2 0,0 0,1 0,1 0,0 0,1 2,0 12,-2 24,-3 36,-4 13,-1 25,-2 38,-2 0,0 0,0 1,0l0 0c1,0 2,0 3,0zm-195 54c1,-1 1,-2 2,-3 1,-2 2,-4 3,-7 1,-2 2,-4 3,-6 0,-2 0,-3 -1,-3 -1,0 -1,0 -2,0 0,0 0,0 -1,0 -2,1 -4,2 -7,3 -5,1 -11,3 -17,5 0,0 0,0 -1,0 -10,3 -20,7 -30,11 -5,2 -9,4 -14,7 -2,1 -3,3 -4,4 -1,1 -1,1 -1,2 1,1 1,1 2,1 1,1 3,1 5,1 1,0 2,0 4,0 0,0 0,0 0,0 7,-1 14,-2 21,-4 12,-2 23,-5 34,-8 0,0 0,-1 0,-1 1,0 2,0 2,0 1,-1 2,-1 2,-2zm10 -2c6,-2 15,-5 27,-10 11,-5 22,-10 33,-15 10,-5 17,-9 21,-13 0,0 -1,0 -1,0 0,0 0,0 0,0 -24,5 -46,10 -69,17 -2,0 -4,2 -4,3 -2,3 -3,6 -4,9 -1,2 -2,4 -3,7 -1,0 -1,0 -1,1 0,0 0,0 1,1zm0 0z"/>
     </g>
    </g>
   </g>
   <g>
    <g>
     <g>
      <path class="fil0" d="M251 143c-2,2 -5,4 -7,5 -3,1 -5,2 -7,3 -1,0 -3,0 -5,0 -3,0 -6,0 -8,-1 -4,-2 -6,-5 -4,-9 1,-4 3,-7 7,-10 3,-2 7,-3 11,-3 0,0 0,0 0,0 1,0 2,0 3,0 1,1 2,2 2,3 1,1 1,2 0,4 -2,3 -5,5 -9,5 -3,1 -5,0 -7,0 -1,0 -1,0 -1,0 -1,1 -1,1 -1,1 -1,3 0,5 3,6 3,1 6,1 9,0 4,-1 7,-3 11,-7 3,-3 5,-4 6,-4 0,0 0,1 0,2 0,1 -1,3 -3,5zm-22 -8c0,0 0,0 0,1 0,0 0,0 0,0 1,1 2,1 4,1 1,0 2,-1 3,-1 1,-1 2,-2 2,-3 0,-1 -1,-1 -1,-1 0,0 -1,0 -1,0 -3,0 -5,1 -7,3zm0 0z"/>
     </g>
    </g>
   </g>
   <g>
    <g>
     <g>
      <path class="fil0" d="M315 82c1,0 1,0 1,0 1,0 2,0 2,-1 1,0 1,0 2,0 0,1 0,1 0,1 0,2 -1,3 -1,5 0,0 -1,0 -1,0 -2,7 -5,13 -8,19 -1,1 -1,2 -1,3 -1,2 -3,5 -4,8 -2,3 -3,6 -5,9 1,-1 3,-2 5,-3 2,-1 3,-1 4,-1 3,0 5,2 6,5 0,4 0,8 -2,12 -2,4 -5,8 -8,10 -3,2 -6,2 -8,2 -3,0 -5,-1 -7,-3 0,0 0,0 0,0 -1,0 -1,0 -1,1 -1,0 -1,1 -1,1 -1,0 -1,0 -1,0 -1,0 -1,0 -1,0 -1,-1 -1,-2 -1,-3 3,-7 6,-15 10,-23 4,-8 8,-15 11,-23 2,-3 4,-7 5,-10 1,-1 2,-2 2,-4 1,-1 2,-3 2,-5zm-12 46c-3,2 -5,4 -7,7 -2,3 -2,5 -2,8 0,2 1,3 2,4 1,1 3,0 4,-1 2,-1 3,-3 4,-5 2,-2 3,-4 4,-7 1,-2 1,-4 1,-5 0,-2 0,-3 -1,-3 -1,0 -3,0 -5,2zm0 0z"/>
     </g>
    </g>
   </g>
   <g>
    <g>
     <g>
      <path class="fil0" d="M382 82c0,0 0,0 1,0 0,0 1,0 2,-1 0,0 1,0 1,0 1,1 1,1 1,1 -1,2 -1,3 -2,5 0,0 0,0 0,0 -3,7 -6,13 -9,19 0,1 -1,2 -1,3 -1,2 -2,5 -4,8 -2,3 -3,6 -4,9 1,-1 2,-2 4,-3 2,-1 3,-1 4,-1 4,0 6,2 6,5 1,4 0,8 -2,12 -2,4 -5,8 -8,10 -3,2 -5,2 -8,2 -2,0 -4,-1 -6,-3 -1,0 -1,0 -1,0 0,0 -1,0 -1,1 0,0 -1,1 -1,1 0,0 -1,0 -1,0 0,0 -1,0 -1,0 -1,-1 -1,-2 -1,-3 3,-7 7,-15 10,-23 4,-8 8,-15 12,-23 1,-3 3,-7 5,-10 0,-1 1,-2 1,-4 1,-1 2,-3 3,-5zm-13 46c-2,2 -5,4 -7,7 -1,3 -2,5 -2,8 1,2 1,3 3,4 1,1 2,0 3,-1 2,-1 3,-3 5,-5 1,-2 2,-4 3,-7 1,-2 2,-4 2,-5 0,-2 -1,-3 -2,-3 0,0 -2,0 -5,2zm0 0z"/>
     </g>
    </g>
   </g>
   <g>
    <g>
     <g>
      <path class="fil0" d="M447 138c1,-1 2,-1 2,-2 1,0 2,0 2,1 0,0 0,1 -1,1 -2,4 -6,7 -9,10 -4,2 -8,4 -12,4 -4,0 -6,-2 -7,-6 0,-5 2,-14 9,-28 6,-14 11,-26 14,-35 1,-1 1,-2 2,-2 0,-1 1,-1 2,-1 1,0 1,1 2,1 0,0 0,1 0,2 -16,38 -24,58 -23,61 0,4 3,4 6,3 4,-2 7,-4 9,-5 2,-2 3,-3 4,-4zm0 0z"/>
     </g>
    </g>
   </g>
   <g>
    <g>
     <g>
      <path class="fil0" d="M515 143c-2,2 -5,4 -7,5 -3,1 -5,2 -7,3 -1,0 -3,0 -5,0 -3,0 -6,0 -8,-1 -4,-2 -6,-5 -4,-9 1,-4 3,-7 7,-10 3,-2 7,-3 11,-3 0,0 0,0 0,0 1,0 2,0 3,0 1,1 2,2 2,3 1,1 1,2 0,4 -2,3 -5,5 -9,5 -2,1 -5,0 -7,0 -1,0 -1,0 -1,0 -1,1 -1,1 -1,1 -1,3 0,5 3,6 3,1 6,1 9,0 4,-1 7,-3 11,-7 3,-3 5,-4 6,-4 0,0 0,1 0,2 0,1 -1,3 -3,5zm-22 -8c0,0 0,0 0,1 0,0 0,0 0,0 1,1 3,1 4,1 1,0 2,-1 3,-1 1,-1 2,-2 2,-3 0,-1 -1,-1 -1,-1 0,0 -1,0 -1,0 -3,0 -5,1 -7,3zm0 0z"/>
     </g>
    </g>
   </g>
   <g>
    <g>
     <g>
      <path class="fil0" d="M578 137c-5,2 -9,3 -11,5 -2,0 -3,1 -3,2 -1,0 0,1 0,3 0,0 0,0 0,0 1,2 2,4 2,6 0,3 -3,6 -10,8 -7,1 -11,1 -14,0 -2,-2 -3,-3 -2,-6 1,-2 3,-4 7,-6 4,-3 6,-4 7,-5 2,-1 2,-2 2,-4 -1,0 -1,-1 -1,-1 0,-1 -1,-2 -1,-3 -1,-2 -2,-4 -1,-6 0,-2 0,-4 2,-5 1,-1 3,-2 6,-2 1,0 3,0 4,1 1,0 2,1 3,2 1,1 1,2 0,3 -1,0 -2,0 -3,0 0,0 0,-1 -1,-1 0,0 0,0 0,0 0,0 0,0 0,-1 -1,0 -1,0 -1,0 -1,-1 -2,-1 -3,-1 -1,0 -1,1 -2,2 0,1 0,2 0,3 0,1 0,2 1,3 0,1 0,1 0,2 1,1 1,2 2,3 0,0 1,1 1,1 1,-1 5,-2 14,-6 2,0 3,1 2,3zm-22 19c3,-1 4,-2 3,-5 0,0 0,0 0,0 0,-2 0,-2 -1,-3 0,-1 -1,-1 -2,0 -4,2 -7,4 -10,7 0,0 0,0 -1,0 0,0 0,1 0,1 0,0 0,0 0,1 0,0 1,0 1,0 4,1 7,0 10,-1zm0 0z"/>
     </g>
    </g>
   </g>
   <g>
    <g>
     <g>
      <path class="fil0" d="M951 17c0,1 1,2 2,3 1,1 1,2 1,3 1,1 0,3 -1,3 -1,1 -2,1 -2,0 -1,0 -2,0 -2,-1 -1,-2 -2,-4 -4,-5 -1,-2 -3,-3 -5,-4 -4,-2 -8,-4 -13,-5 -4,-2 -9,-3 -13,-4 -8,-1 -18,-3 -31,-3 -12,0 -27,0 -42,1 -16,0 -31,2 -48,5 -16,2 -31,5 -46,10 -15,4 -28,9 -40,16 -11,6 -19,14 -25,22 -4,8 -5,16 -2,24 2,6 4,11 8,16 6,7 12,14 19,20 6,5 11,10 17,15 6,5 11,10 17,16 6,5 13,11 19,17 0,1 1,1 2,2 3,3 6,6 8,10 3,4 3,8 2,10 -2,2 -5,4 -9,5 -5,1 -10,1 -16,1 -6,-1 -12,-1 -18,-3 -6,-1 -11,-2 -15,-4 -5,-1 -8,-3 -10,-5 -4,-3 -4,-7 -1,-11 3,-4 8,-7 13,-9 8,-3 15,-3 23,0 1,0 3,1 4,2 0,0 0,0 0,0 1,0 1,0 1,1 0,0 0,1 0,1 -1,1 -2,1 -2,1 -1,-1 -2,-1 -3,-1 -5,-3 -10,-4 -16,-2 -6,2 -10,5 -14,9 -2,2 -2,4 -1,6 2,2 4,3 7,4 3,1 7,2 10,3 3,1 5,1 7,1 0,0 0,0 0,0 1,0 1,0 2,0 1,1 4,1 8,2 3,0 7,1 10,1 4,0 7,0 10,-1 2,-1 4,-2 4,-4 0,-2 -1,-5 -4,-8 -4,-4 -7,-8 -11,-12 -10,-9 -20,-18 -30,-27 -3,-3 -7,-6 -11,-10 -6,-5 -12,-11 -17,-16 -6,-6 -11,-11 -15,-18 -3,-4 -5,-9 -6,-14 -2,-9 0,-17 5,-24 5,-8 13,-16 24,-22 10,-6 22,-12 35,-16 14,-4 29,-8 44,-11 15,-3 31,-5 47,-6 15,-1 30,-1 45,-1 14,1 27,2 39,3 11,2 21,5 29,8 3,1 7,4 11,6zm0 0z"/>
     </g>
    </g>
   </g>
   <g>
    <g>
     <g>
      <path class="fil0" d="M823 141c-1,2 -3,4 -6,6 -2,2 -5,3 -8,4 -3,0 -6,0 -7,-1 -2,-1 -2,-4 -1,-7 1,-4 3,-8 5,-11 1,-1 2,-1 2,-2 1,0 2,0 2,1 1,0 1,1 1,1 0,1 -1,3 -2,4 0,1 -1,2 -1,2 -1,2 -2,5 -2,7 0,1 2,1 5,0 4,-1 7,-3 11,-6 3,-3 5,-4 4,-3 0,1 -1,3 -3,5zm-8 -17c0,0 -1,1 -1,1 -1,0 -1,0 -2,0 -1,0 -1,0 -1,0 -1,0 -1,-1 0,-2 0,-1 1,-2 1,-3 1,-1 2,-3 3,-4 0,0 1,-1 2,-1 0,0 1,0 1,1 1,0 1,1 1,1 -1,3 -2,5 -4,7zm0 0z"/>
     </g>
    </g>
   </g>
   <g>
    <g>
     <g>
      <path class="fil0" d="M906 135c0,0 1,0 1,0 0,0 1,1 1,1 0,0 0,1 0,1 -1,0 -1,1 -1,1 -3,1 -6,3 -9,4 -4,2 -8,4 -11,6 -1,0 -1,0 -2,1 -1,0 -1,0 -2,1 -2,1 -3,2 -4,4 -2,5 -3,9 -5,14 -2,6 -5,11 -8,17 -2,3 -5,6 -7,8 -4,3 -7,5 -12,6 -7,1 -13,1 -20,-2 -2,0 -5,-2 -6,-4 -3,-3 -3,-6 -1,-9 1,-1 2,-3 4,-4 3,-2 6,-5 9,-7 12,-7 24,-14 37,-21 0,0 0,0 0,0 1,0 2,-1 4,-2 0,0 0,0 0,-1 1,0 1,-1 1,-2 0,0 0,-1 0,-1 0,0 -1,0 -2,1 0,0 -1,0 -1,0 -1,1 -2,1 -3,1 -6,2 -9,0 -9,-6 0,-4 1,-7 3,-10 2,-2 5,-5 8,-6 3,-2 6,-2 10,-2 0,0 1,0 1,0 1,0 2,0 3,0 1,0 2,0 3,0 1,-1 2,-1 2,0 1,1 1,2 1,3 -1,2 -2,4 -3,6 -1,1 -2,3 -2,4 -1,2 -1,3 -2,5 -1,2 -1,3 -1,3 1,0 2,0 4,-1 0,0 0,0 0,0 3,-2 6,-3 9,-4 2,-1 4,-2 6,-3 1,-1 3,-1 4,-2zm-36 27c1,-3 2,-5 2,-5 -1,-1 -1,-2 -2,-1 -1,0 -3,1 -5,2 -1,1 -2,2 -4,2 -8,5 -16,10 -24,15 -4,2 -7,5 -10,8 -3,3 -3,6 0,8 2,2 4,3 7,3 2,1 4,1 7,1 3,0 6,0 9,-2 3,-1 5,-3 7,-6 2,-2 3,-4 4,-6 4,-6 7,-12 9,-19zm-3 -17c1,0 2,0 4,-1 1,-1 3,-3 5,-4 2,-2 3,-4 4,-6 1,-2 1,-3 1,-5 0,0 -1,0 -1,-1 0,0 -1,-1 -2,0 0,0 -1,0 -2,0 -2,1 -4,2 -6,5 -2,2 -3,5 -4,7 -1,2 0,4 1,5zm0 0z"/>
     </g>
    </g>
   </g>
   <g>
    <g>
     <g>
      <path class="fil0" d="M983 137c0,1 0,2 -2,4 -2,2 -4,3 -6,4 -2,2 -5,3 -7,4 -2,1 -4,1 -6,1 -2,0 -3,-2 -3,-4 0,-2 0,-4 1,-7 1,-2 1,-3 1,-3 -1,0 -2,0 -4,1 -5,4 -9,7 -13,11 -1,2 -3,2 -4,2 -1,0 -2,0 -2,0 -1,-1 -1,-1 -1,-2 3,-6 6,-11 9,-16 1,-1 2,-2 3,-2 1,0 1,0 2,0 0,1 1,1 1,2 0,0 -1,1 -1,2 0,0 0,0 -1,1 0,0 0,1 0,1 0,0 1,0 1,0 0,0 1,0 1,-1 2,0 3,-1 4,-2 1,0 2,-1 3,-1 2,-1 3,-1 4,-1 2,-1 3,0 4,1 1,1 1,2 1,4 -1,2 -2,4 -3,5 0,2 -1,3 0,4 1,1 3,0 8,-3l4 -2c4,-2 6,-3 6,-3zm0 0z"/>
     </g>
    </g>
   </g>
   <g>
    <g>
     <g>
      <path class="fil0" d="M1055 137c1,0 1,1 0,3 -1,1 -2,2 -3,4 -1,1 -2,2 -4,2 0,0 0,1 0,1 -1,0 -2,1 -3,1 -8,3 -12,1 -12,-5 -3,3 -5,5 -6,5 -3,2 -6,3 -9,2 -2,0 -4,0 -5,-2 0,-1 0,-3 1,-5 1,-3 3,-6 6,-9 3,-3 7,-5 10,-7 3,-1 5,-1 7,-1 2,0 4,1 4,4 0,0 0,1 0,2 -1,0 -2,1 -3,0 0,0 0,0 0,0 0,0 0,0 -1,0 -1,-1 -2,-2 -3,-2 -1,1 -2,1 -3,2 -5,3 -9,7 -11,12 0,0 0,1 0,1 0,0 0,1 0,1 0,0 1,0 2,0 1,-1 1,-1 2,-2 1,0 1,-1 2,-1 0,0 0,0 0,0 2,-2 5,-4 7,-7 1,-1 3,-1 4,-1 2,0 3,1 3,3 0,0 -1,1 -1,2 -1,3 -1,5 0,5 1,1 2,1 4,0 1,0 3,-1 5,-3 1,-1 3,-3 4,-4 1,-1 2,-2 3,-1zm0 0z"/>
     </g>
    </g>
   </g>
   <g>
    <g>
     <g>
      <path class="fil0" d="M1122 138c-5,5 -9,9 -14,12 -4,2 -8,3 -13,2 -5,-1 -7,-4 -6,-10 0,-3 1,-5 2,-8 3,-6 5,-13 8,-19 1,-2 2,-5 3,-7 0,-1 0,-1 0,-2 1,0 1,-1 1,-2 1,-2 0,-2 -1,-2 -1,0 -2,0 -3,0 -1,0 -1,0 -2,0 0,0 -1,0 -1,0 -1,0 -2,0 -3,0 -1,0 -1,0 -2,-1 0,0 -1,0 -1,0 0,0 0,-1 0,-1 0,0 0,0 0,0 1,0 1,-1 1,-1 1,0 2,0 2,0 2,0 4,0 7,-1 0,0 1,0 2,0 1,0 2,0 3,0 0,0 1,0 1,-1 1,0 1,-1 2,-3 0,0 0,-1 1,-2 1,-2 2,-5 3,-7 1,-1 1,-2 2,-3 0,-1 1,-2 2,-3 1,0 1,0 2,1 0,0 0,0 0,0 1,1 1,1 1,1 0,1 -1,3 -1,4 0,0 -1,0 -1,1 0,1 -1,2 -1,3 -1,3 -2,5 -3,7 0,1 0,1 0,2 0,0 1,0 1,0 2,0 5,0 7,0 1,0 2,0 4,0 3,0 5,1 4,2 -1,0 -1,1 -2,1 0,0 -1,0 -1,0 -1,0 -1,0 -2,0 -3,0 -7,0 -11,0 -1,0 -3,1 -3,3 -1,1 -1,2 -2,4 -1,2 -2,4 -2,6 -1,1 -2,3 -3,5 -1,4 -3,9 -5,13 -1,3 -2,6 -3,9 -1,6 1,8 7,7 5,-1 11,-6 17,-12 3,-2 4,-1 3,2zm0 0z"/>
     </g>
    </g>
   </g>
   <g>
    <g>
     <g>
      <path class="fil0" d="M1159 153c-4,0 -5,-1 -5,-5 0,-4 2,-11 8,-21 0,0 0,-1 1,-1 2,0 3,1 3,3 0,0 0,1 -1,2 0,0 -2,5 -5,13 0,2 -1,3 -1,3 0,1 1,2 1,2 3,0 9,-7 20,-19 1,-1 2,-2 4,-2 1,0 2,1 2,2 0,0 0,3 -1,6 -2,5 -3,8 -3,8 0,1 1,2 1,2 2,0 8,-3 16,-10 1,0 1,-1 2,-1 1,0 1,1 1,3 0,0 0,0 0,0 -5,5 -9,8 -12,10 -3,2 -6,3 -8,3l-1 0c-4,-1 -5,-4 -5,-8 -4,3 -7,5 -10,7 -2,2 -5,3 -7,3zm0 0z"/>
     </g>
    </g>
   </g>
   <g>
    <g>
     <g>
      <path class="fil0" d="M1261 131c0,3 -1,4 -3,5 -2,1 -3,0 -2,-3 1,-2 0,-3 -3,-2 -3,2 -6,3 -8,5 -3,3 -5,6 -7,10 -1,0 -1,0 -1,0 -1,1 -1,2 -2,3 0,1 -1,1 -2,1 0,1 -1,1 -1,0 -1,0 -1,0 -2,0 0,-1 0,-1 0,-1 1,-1 1,-2 2,-3 3,-6 6,-11 9,-17 0,0 0,0 0,0 0,-1 1,-2 1,-3 1,0 2,-1 3,-1 1,1 1,1 1,2 1,1 1,2 1,2 1,0 1,0 2,0 2,-1 4,-2 6,-2 2,0 4,0 5,0 1,1 1,2 1,4zm0 0z"/>
     </g>
    </g>
   </g>
   <g>
    <g>
     <g>
      <path class="fil0" d="M1329 143c-2,2 -4,4 -6,5 -3,1 -5,2 -7,3 -2,0 -3,0 -5,0 -3,0 -6,0 -8,-1 -4,-2 -6,-5 -5,-9 2,-4 4,-7 7,-10 4,-2 8,-3 12,-3 0,0 0,0 0,0 1,0 2,0 2,0 2,1 3,2 3,3 1,1 0,2 -1,4 -2,3 -5,5 -8,5 -3,1 -5,0 -7,0 -1,0 -1,0 -2,0 0,1 0,1 0,1 -1,3 0,5 3,6 3,1 6,1 9,0 4,-1 7,-3 11,-7 3,-3 5,-4 5,-4 1,0 1,1 1,2 -1,1 -2,3 -4,5zm-21 -8c0,0 0,0 0,1 -1,0 0,0 0,0 1,1 2,1 4,1 1,0 2,-1 3,-1 1,-1 2,-2 1,-3 0,-1 0,-1 0,-1 -1,0 -1,0 -1,0 -3,0 -5,1 -7,3zm0 0z"/>
     </g>
    </g>
   </g>
   <g>
    <g>
     <g>
      <path class="fil0" d="M1393 137c-6,2 -9,3 -12,5 -1,0 -2,1 -3,2 0,0 0,1 1,3 0,0 0,0 0,0 1,2 1,4 1,6 1,3 -3,6 -9,8 -7,1 -12,1 -14,0 -2,-2 -3,-3 -2,-6 1,-2 3,-4 7,-6 4,-3 6,-4 7,-5 1,-1 2,-2 1,-4 0,0 0,-1 0,-1 -1,-1 -1,-2 -2,-3 0,-2 -1,-4 -1,-6 0,-2 1,-4 2,-5 2,-1 4,-2 7,-2 1,0 3,0 4,1 1,0 2,1 3,2 0,1 0,2 -1,3 0,0 -1,0 -2,0 0,0 -1,-1 -1,-1 0,0 0,0 0,0 0,0 -1,0 -1,-1 0,0 0,0 0,0 -1,-1 -2,-1 -3,-1 -1,0 -2,1 -2,2 0,1 0,2 0,3 0,1 0,2 0,3 1,1 1,1 1,2 1,1 1,2 2,3 0,0 0,1 1,1 0,-1 5,-2 14,-6 2,0 3,1 2,3zm-22 19c2,-1 3,-2 3,-5 0,0 0,0 0,0 0,-2 -1,-2 -1,-3 0,-1 -1,-1 -3,0 -3,2 -6,4 -9,7 0,0 -1,0 -1,0 0,0 0,1 0,1 0,0 0,0 0,1 0,0 0,0 1,0 3,1 7,0 10,-1zm0 0z"/>
     </g>
    </g>
   </g>
  </g>
 </g>
</svg>
